<?xml version="1.0" ?><svg id="Layer_1" style="enable-background:new 0 0 120 120;" version="1.1" viewBox="0 0 120 120" xml:space="preserve" xmlns="http://www.w3.org/2000/svg" xmlns:xlink="http://www.w3.org/1999/xlink"><style type="text/css">
	.st0{fill:#F4F4F4;}
	.st1{fill:#D0EDFF;}
	.st2{fill:#E6E8E6;}
	.st3{fill:#7790FC;}
	.st4{fill:#FCDE63;}
	.st5{fill:#59D359;}
	.st6{fill:#D85252;}
</style><rect class="st0" height="19.2" width="14.1" x="53" y="73.7"/><rect class="st0" height="19.2" width="14.1" x="53" y="64.1"/><path class="st1" d="M98.8,79.4H21.2c-1.5,0-2.6-1.2-2.6-2.6V26.6c0-1.5,1.2-2.6,2.6-2.6h77.7c1.5,0,2.6,1.2,2.6,2.6v50.1  C101.5,78.2,100.3,79.4,98.8,79.4z"/><path class="st0" d="M18.5,76.6c0,1.5,1.3,2.8,2.8,2.8h77.4c1.5,0,2.8-1.3,2.8-2.8v-8.7h-83V76.6z"/><g><path class="st2" d="M76.1,89.7H43.9c-0.7,0-1.3,0.6-1.3,1.3v3.7c0,0.7,0.6,1.3,1.3,1.3H76c0.7,0,1.3-0.6,1.3-1.3V91   C77.4,90.3,76.8,89.7,76.1,89.7z"/><rect class="st2" height="2.4" width="14.1" x="53" y="79.4"/></g><path class="st3" d="M98.8,65.3H21.2v-37c0-1.1,0.9-1.9,1.9-1.9h73.7c1.1,0,1.9,0.9,1.9,1.9V65.3z"/><circle class="st4" cx="25.5" cy="30.4" r="1.1"/><circle class="st5" cx="29" cy="30.3" r="1.1"/><circle class="st6" cx="32.5" cy="30.4" r="1.1"/></svg>